<?xml version="1.0" encoding="UTF-8"?>
<svg id="Layer_2" data-name="Layer 2" xmlns="http://www.w3.org/2000/svg" viewBox="0 0 284 284">
  <defs>
    <style>
      .cls-1 {
        fill: #e0a96d;
      }

      .cls-2 {
        fill: #5d2a66;
      }

      .cls-3 {
        fill: #faf6f0;
      }
    </style>
  </defs>
  <g id="Layer_1-2" data-name="Layer 1">
    <g>
      <rect class="cls-3" y="0" width="284" height="284" rx="84.51" ry="84.51"/>
      <g>
        <path class="cls-2" d="m163.69,242.54c-56.56,12.39-107.85-21.17-123.65-70.46-5.08-15.84,6.99-31.99,23.62-31.99h.78c10.72,0,20.03,7.02,23.39,17.19,7.5,22.73,29.43,38.95,54.9,37.76,28.16-1.32,51.01-24.17,52.33-52.33,1.19-25.46-15.03-47.4-37.76-54.9-10.18-3.36-17.19-12.67-17.19-23.39v-.78c0-16.63,16.15-28.69,31.99-23.62,49.29,15.8,82.85,67.08,70.46,123.65-7.75,35.39-43.47,71.11-78.86,78.86Z"/>
        <circle class="cls-1" cx="84.06" cy="82.95" r="25.05"/>
      </g>
    </g>
  </g>
</svg>