<?xml version="1.0" encoding="UTF-8"?>
<svg id="Layer_2" data-name="Layer 2" xmlns="http://www.w3.org/2000/svg" viewBox="0 0 780.03 215.18">
  <defs>
    <style>
      .cls-1 {
        fill: #b39ddb;
      }

      .cls-2 {
        fill: #f07080;
      }
    </style>
  </defs>
  <g id="Layer_1-2" data-name="Layer 1">
    <g>
      <g>
        <path class="cls-1" d="m318.34,212.3c-58.91,12.9-112.32-22.04-128.77-73.38-5.29-16.49,7.28-33.31,24.59-33.31h.82c11.16,0,20.86,7.31,24.35,17.91,7.81,23.67,30.65,40.57,57.17,39.33,29.32-1.37,53.12-25.17,54.49-54.49,1.24-26.52-15.66-49.36-39.33-57.17-10.6-3.5-17.91-13.19-17.91-24.35v-.82c0-17.32,16.82-29.88,33.31-24.59,51.33,16.45,86.28,69.86,73.38,128.77-8.07,36.85-45.27,74.05-82.12,82.12Z"/>
        <circle class="cls-2" cx="235.42" cy="46.1" r="26.09"/>
      </g>
      <g>
        <path class="cls-1" d="m107.59,103.56V26.9c0-7.44,2.62-13.79,7.87-19.03,5.25-5.24,11.59-7.87,19.03-7.87s13.79,2.62,19.03,7.87c5.25,5.25,7.87,11.59,7.87,19.03v161.39c0,7.44-2.62,13.79-7.87,19.03s-11.59,7.87-19.03,7.87-13.76-2.64-18.96-7.93c-1.79-1.7-3.27-3.54-4.44-5.51h-.13l-57.16-90.11v76.66c0,7.44-2.62,13.79-7.87,19.03s-11.59,7.87-19.03,7.87-13.79-2.62-19.03-7.87-7.87-11.59-7.87-19.03V26.9c0-7.44,2.62-13.79,7.87-19.03C13.11,2.62,19.46,0,26.9,0s13.81,2.6,19.1,7.8c1.7,1.79,3.14,3.68,4.3,5.65h.13l57.16,90.11Z"/>
        <path class="cls-1" d="m430.36,26.9c0-7.44,2.62-13.79,7.87-19.03,5.25-5.24,11.59-7.87,19.03-7.87s13.79,2.62,19.03,7.87c5.25,5.25,7.87,11.59,7.87,19.03v107.59c0,7.44,2.62,13.79,7.87,19.03s11.59,7.87,19.03,7.87,13.79-2.62,19.03-7.87c5.24-5.25,7.87-11.59,7.87-19.03V26.9c0-7.44,2.62-13.79,7.87-19.03,5.25-5.24,11.59-7.87,19.03-7.87s13.79,2.62,19.03,7.87c5.25,5.25,7.87,11.59,7.87,19.03v107.59c0,22.33-7.87,41.36-23.6,57.09s-34.76,23.6-57.09,23.6-41.36-7.87-57.09-23.6-23.6-34.77-23.6-57.09V26.9Z"/>
        <path class="cls-1" d="m684.81,134.49h-12.37v53.8c0,7.44-2.62,13.79-7.87,19.03s-11.59,7.87-19.03,7.87-13.79-2.62-19.03-7.87-7.87-11.59-7.87-19.03V26.9c0-7.44,2.62-13.79,7.87-19.03,5.25-5.24,11.59-7.87,19.03-7.87h67.24c18.56,0,34.41,6.57,47.54,19.7,13.13,13.14,19.7,28.98,19.7,47.54s-6.54,34.38-19.63,47.47c-4.57,4.57-9.5,8.38-14.79,11.43l31.07,48.68h-.13c2.33,4.04,3.5,8.52,3.5,13.45,0,7.44-2.62,13.79-7.87,19.03s-11.59,7.87-19.03,7.87-13.76-2.64-18.96-7.93c-1.79-1.7-3.27-3.54-4.44-5.51h-.13l-44.79-67.24Zm27.97-80.69h-40.35v26.9h40.35c3.68,0,6.84-1.32,9.48-3.97s3.97-5.8,3.97-9.48-1.32-6.84-3.97-9.48c-2.65-2.64-5.81-3.97-9.48-3.97Z"/>
      </g>
    </g>
  </g>
</svg>