<?xml version="1.0" encoding="UTF-8"?>
<svg id="Layer_2" data-name="Layer 2" xmlns="http://www.w3.org/2000/svg" viewBox="0 0 772.34 248">
  <defs>
    <style>
      .cls-1 {
        fill: #e0a96d;
      }

      .cls-2 {
        fill: #5d2a66;
      }
    </style>
  </defs>
  <g id="Layer_1-2" data-name="Layer 1">
    <g>
      <g>
        <path class="cls-2" d="m674.65,244.62c-67.86,14.86-129.38-25.39-148.33-84.52-6.09-19,8.38-38.38,28.33-38.38h.94c12.86,0,24.03,8.42,28.05,20.63,8.99,27.27,35.31,46.73,65.85,45.3,33.78-1.58,61.19-28.99,62.77-62.77,1.43-30.55-18.03-56.86-45.3-65.85-12.21-4.03-20.63-15.2-20.63-28.05v-.94c0-19.95,19.38-34.42,38.38-28.33,59.13,18.95,99.39,80.47,84.52,148.33-9.3,42.45-52.15,85.3-94.6,94.6Z"/>
        <circle class="cls-1" cx="579.13" cy="53.16" r="30.05"/>
      </g>
      <path class="cls-2" d="m149.73,244.62C81.88,259.48,20.35,219.22,1.41,160.09c-6.09-19,8.38-38.38,28.33-38.38h.94c12.86,0,24.03,8.42,28.05,20.63,8.99,27.27,35.31,46.73,65.85,45.3,33.78-1.58,61.19-28.99,62.77-62.77,1.43-30.55-18.03-56.86-45.3-65.85-12.21-4.03-20.63-15.2-20.63-28.05v-.94c0-19.95,19.38-34.42,38.38-28.33,59.13,18.95,99.39,80.47,84.52,148.33-9.3,42.45-52.15,85.3-94.6,94.6Z"/>
      <path class="cls-2" d="m461.17,17C443.56,4.71,425.76,0,406.39,0c-41.7,0-75.5,33.8-75.5,75.5s33.8,75.5,75.5,75.5c15.27,0,29.48-4.53,41.36-12.33-7.17,27.31-31.57,47.9-60.71,49.26-30.54,1.43-56.86-18.04-65.85-45.3-4.03-12.21-15.2-20.63-28.05-20.63h-.95c-19.95,0-34.41,19.38-28.33,38.38,18.95,59.13,80.48,99.38,148.33,84.52,42.45-9.3,85.3-52.15,94.6-94.6,11.73-53.55-6.5-105.46-45.62-133.3Zm-54.78,73c-8.01,0-14.5-6.49-14.5-14.5s6.49-14.5,14.5-14.5c1.42,0,2.79.2,4.09.59,1.58.46,3.04,1.18,4.34,2.12,3.68,2.62,6.07,6.93,6.07,11.79,0,8.01-6.49,14.5-14.5,14.5Z"/>
    </g>
  </g>
</svg>